<?xml version="1.0" encoding="UTF-8" standalone="no"?> <svg xmlns:inkscape="http://www.inkscape.org/namespaces/inkscape" xmlns:sodipodi="http://sodipodi.sourceforge.net/DTD/sodipodi-0.dtd" xmlns="http://www.w3.org/2000/svg" xmlns:svg="http://www.w3.org/2000/svg" width="101" height="24" viewBox="0 0 101 24" fill="none" version="1.1" id="svg5" sodipodi:docname="best_offer.svg" inkscape:version="1.3.2 (091e20ef0f, 2023-11-25)"><rect x="0.5" y="0.5" width="100" height="23" rx="11.5" fill="#fefbf6" id="rect1"></rect><rect x="0.5" y="0.5" width="100" height="23" rx="11.5" stroke="#fefbf6" id="rect2"></rect><g clip-path="url(#clip0_241_1905)" id="g4" transform="translate(-0.5,-0.90479004)"><path fill-rule="evenodd" clip-rule="evenodd" d="m 16.75,8.52979 c 0.1953,0 0.367,0.12949 0.4207,0.3173 l 0.4743,1.66031 c 0.2077,0.7267 0.7757,1.2947 1.5024,1.5024 l 1.6603,0.4743 c 0.1878,0.0537 0.3173,0.2253 0.3173,0.4207 0,0.1953 -0.1295,0.367 -0.3173,0.4207 l -1.6603,0.4743 c -0.7267,0.2076 -1.2947,0.7757 -1.5024,1.5024 l -0.4743,1.6603 c -0.0537,0.1878 -0.2254,0.3173 -0.4207,0.3173 -0.1953,0 -0.367,-0.1295 -0.4207,-0.3173 L 15.855,15.3022 c -0.2077,-0.7267 -0.7757,-1.2948 -1.5024,-1.5024 l -1.6603,-0.4743 c -0.1878,-0.0537 -0.3173,-0.2254 -0.3173,-0.4207 0,-0.1954 0.1295,-0.367 0.3173,-0.4207 l 1.6603,-0.4743 c 0.7267,-0.2077 1.2947,-0.7757 1.5024,-1.5024 L 16.3293,8.84709 C 16.383,8.65928 16.5547,8.52979 16.75,8.52979 Z" fill="#1d1934" id="path2"></path><path fill-rule="evenodd" clip-rule="evenodd" d="m 22,6.77979 c 0.2008,0 0.3757,0.13663 0.4244,0.33139 l 0.151,0.60402 c 0.1372,0.54862 0.5656,0.97699 1.1142,1.11414 l 0.604,0.15101 c 0.1948,0.04869 0.3314,0.22368 0.3314,0.42444 0,0.20075 -0.1366,0.37574 -0.3314,0.42443 l -0.604,0.15101 c -0.5486,0.13717 -0.977,0.56557 -1.1142,1.11417 l -0.151,0.604 c -0.0487,0.1948 -0.2236,0.3314 -0.4244,0.3314 -0.2008,0 -0.3757,-0.1366 -0.4244,-0.3314 l -0.151,-0.604 C 21.2874,10.5458 20.859,10.1174 20.3104,9.98023 L 19.7064,9.82922 C 19.5116,9.78053 19.375,9.60554 19.375,9.40479 c 0,-0.20076 0.1366,-0.37575 0.3314,-0.42444 l 0.604,-0.15101 C 20.859,8.69219 21.2874,8.26382 21.4246,7.7152 l 0.151,-0.60402 C 21.6243,6.91642 21.7992,6.77979 22,6.77979 Z" fill="#1d1934" id="path3"></path><path fill-rule="evenodd" clip-rule="evenodd" d="m 21.125,14.6548 c 0.1883,0 0.3555,0.1205 0.415,0.2991 l 0.23,0.69 c 0.0871,0.2612 0.2921,0.4663 0.5534,0.5534 l 0.6899,0.2299 c 0.1787,0.0596 0.2992,0.2268 0.2992,0.4151 0,0.1883 -0.1205,0.3555 -0.2992,0.415 l -0.6899,0.23 c -0.2613,0.0871 -0.4663,0.2921 -0.5534,0.5534 l -0.23,0.6899 c -0.0595,0.1787 -0.2267,0.2992 -0.415,0.2992 -0.1883,0 -0.3555,-0.1205 -0.415,-0.2992 l -0.23,-0.6899 c -0.0871,-0.2613 -0.2921,-0.4663 -0.5534,-0.5534 l -0.6899,-0.23 c -0.1787,-0.0595 -0.2992,-0.2267 -0.2992,-0.415 0,-0.1883 0.1205,-0.3555 0.2992,-0.4151 l 0.6899,-0.2299 c 0.2613,-0.0871 0.4663,-0.2922 0.5534,-0.5534 l 0.23,-0.69 c 0.0595,-0.1786 0.2267,-0.2991 0.415,-0.2991 z" fill="#1d1934" id="path4"></path></g><path d="M 31.816,16.00001 V 7.59999 h 3.372 c 0.872,0 1.536,0.204 1.992,0.612 0.464,0.4 0.696,0.91602 0.696,1.54802 0,0.528 -0.144,0.952 -0.432,1.272 -0.28,0.312 -0.624,0.524 -1.032,0.636 0.48,0.096 0.876,0.336 1.188,0.72 0.312,0.376 0.468,0.816 0.468,1.32 0,0.664 -0.24,1.212 -0.72,1.644 -0.48,0.432 -1.16,0.648 -2.04,0.648 z m 1.536,-4.872 h 1.608 c 0.432,0 0.764,-0.1 0.996,-0.3 0.232,-0.2 0.348,-0.484 0.348,-0.852 0,-0.352 -0.116,-0.628 -0.348,-0.828 C 35.732,8.93999 35.392,8.836 34.936,8.836 h -1.584 z m 0,3.624 h 1.716 c 0.456,0 0.808,-0.104 1.056,-0.312 0.256,-0.216 0.384,-0.516 0.384,-0.9 0,-0.392 -0.132,-0.7 -0.396,-0.924 -0.264,-0.224 -0.62,-0.336 -1.068,-0.336 h -1.692 z m 8.8903,1.392 c -0.6,0 -1.132,-0.128 -1.596,-0.384 -0.464,-0.256 -0.828,-0.616 -1.092,-1.08 -0.264,-0.464 -0.396,-1 -0.396,-1.608 0,-0.616 0.128,-1.164 0.384,-1.644 0.264,-0.48 0.624,-0.852 1.08,-1.116 0.464,-0.272 1.008,-0.408 1.632,-0.408 0.584,0 1.1,0.128 1.548,0.384 0.448,0.256 0.796,0.608 1.044,1.056 0.256,0.44 0.384,0.932 0.384,1.476 0,0.088 -0.004,0.18 -0.012,0.276 0,0.096 -0.004,0.196 -0.012,0.3 h -4.524 c 0.032,0.464 0.192,0.828 0.48,1.092 0.296,0.264 0.652,0.396 1.068,0.396 0.312,0 0.572,-0.068 0.78,-0.204 0.216,-0.144 0.376,-0.328 0.48,-0.552 h 1.56 c -0.112,0.376 -0.3,0.72 -0.564,1.032 -0.256,0.304 -0.576,0.544 -0.96,0.72 -0.376,0.176 -0.804,0.264 -1.284,0.264 z m 0.012,-4.992 c -0.376,0 -0.708,0.108 -0.996,0.324 -0.288,0.208 -0.472,0.528 -0.552,0.96 h 2.964 c -0.024,-0.392 -0.168,-0.704 -0.432,-0.936 -0.264,-0.232 -0.592,-0.348 -0.984,-0.348 z m 6.7279,4.992 c -0.528,0 -0.992,-0.084 -1.392,-0.252 -0.4,-0.176 -0.72,-0.416 -0.96,-0.72 -0.24,-0.304 -0.384,-0.656 -0.432,-1.056 h 1.548 c 0.048,0.232 0.176,0.432 0.384,0.6 0.216,0.16 0.492,0.24 0.828,0.24 0.336,0 0.58,-0.068 0.732,-0.204 0.16,-0.136 0.24,-0.292 0.24,-0.468 0,-0.256 -0.112,-0.428 -0.336,-0.516 -0.224,-0.096 -0.536,-0.188 -0.936,-0.276 -0.256,-0.056 -0.516,-0.124 -0.78,-0.204 -0.264,-0.08 -0.508,-0.18 -0.732,-0.3 -0.216,-0.128 -0.392,-0.288 -0.528,-0.48 -0.136,-0.2 -0.204,-0.444 -0.204,-0.732 0,-0.528 0.208,-0.972 0.624,-1.332 0.424,-0.36 1.016,-0.54 1.776,-0.54 0.704,0 1.264,0.164 1.68,0.492 0.424,0.328 0.676,0.78 0.756,1.356 h -1.452 c -0.088,-0.44 -0.42,-0.66 -0.996,-0.66 -0.288,0 -0.512,0.056 -0.672,0.168 -0.152,0.112 -0.228,0.252 -0.228,0.42 0,0.176 0.116,0.316 0.348,0.42 0.232,0.104 0.54,0.2 0.924,0.288 0.416,0.096 0.796,0.204 1.14,0.324 0.352,0.112 0.632,0.284 0.84,0.516 0.208,0.224 0.312,0.548 0.312,0.972 0.008,0.368 -0.088,0.7 -0.288,0.996 -0.2,0.296 -0.488,0.528 -0.864,0.696 -0.376,0.168 -0.82,0.252 -1.332,0.252 z m 6.3092,-0.144 c -0.624,0 -1.124,-0.152 -1.5,-0.456 -0.376,-0.304 -0.564,-0.844 -0.564,-1.62 v -2.592 h -1.02 v -1.284 h 1.02 l 0.18,-1.59601 h 1.356 v 1.59601 h 1.608 v 1.284 h -1.608 v 2.604 c 0,0.288 0.06,0.488 0.18,0.6 0.128,0.104 0.344,0.156 0.648,0.156 h 0.744 v 1.308 z m 9.2301,0.144 c -0.84,0 -1.576,-0.184 -2.208,-0.552 -0.624,-0.368 -1.116,-0.876 -1.476,-1.524 -0.352,-0.656 -0.528,-1.412 -0.528,-2.268 0,-0.856 0.176,-1.608 0.528,-2.256 0.36,-0.65602 0.852,-1.16801 1.476,-1.53601 0.632,-0.368 1.368,-0.552 2.208,-0.552 0.832,0 1.564,0.184 2.196,0.552 0.632,0.368 1.124,0.87999 1.476,1.53601 0.352,0.648 0.528,1.4 0.528,2.256 0,0.856 -0.176,1.612 -0.528,2.268 -0.352,0.648 -0.844,1.156 -1.476,1.524 -0.632,0.368 -1.364,0.552 -2.196,0.552 z m 0,-1.38 c 0.8,0 1.436,-0.264 1.908,-0.792 0.48,-0.528 0.72,-1.252 0.72,-2.172 0,-0.92 -0.24,-1.644 -0.72,-2.172 -0.472,-0.528 -1.108,-0.79201 -1.908,-0.79201 -0.8,0 -1.44,0.26401 -1.92,0.79201 -0.48,0.528 -0.72,1.252 -0.72,2.172 0,0.92 0.24,1.644 0.72,2.172 0.48,0.528 1.12,0.792 1.92,0.792 z m 5.7962,1.236 v -4.668 h -0.816 v -1.284 h 0.816 v -0.696 c 0,-0.72002 0.18,-1.23202 0.54,-1.53602 0.368,-0.304 0.864,-0.456 1.488,-0.456 h 0.66 V 8.668 h -0.42 c -0.264,0 -0.452,0.05199 -0.564,0.15599 -0.112,0.104 -0.168,0.28002 -0.168,0.52802 v 0.696 h 1.284 v 1.284 h -1.284 v 4.668 z m 4.3125,0 v -4.668 h -0.816 v -1.284 h 0.816 v -0.696 c 0,-0.72002 0.18,-1.23202 0.54,-1.53602 0.368,-0.304 0.864,-0.456 1.488,-0.456 h 0.66 V 8.668 h -0.42 c -0.264,0 -0.452,0.05199 -0.564,0.15599 -0.112,0.104 -0.168,0.28002 -0.168,0.52802 v 0.696 h 1.284 v 1.284 h -1.284 v 4.668 z m 6.6941,0.144 c -0.6,0 -1.132,-0.128 -1.596,-0.384 -0.464,-0.256 -0.828,-0.616 -1.092,-1.08 -0.264,-0.464 -0.396,-1 -0.396,-1.608 0,-0.616 0.128,-1.164 0.384,-1.644 0.264,-0.48 0.624,-0.852 1.08,-1.116 0.464,-0.272 1.008,-0.408 1.632,-0.408 0.584,0 1.1,0.128 1.548,0.384 0.448,0.256 0.796,0.608 1.044,1.056 0.256,0.44 0.384,0.932 0.384,1.476 0,0.088 -0.004,0.18 -0.012,0.276 0,0.096 -0.004,0.196 -0.012,0.3 h -4.524 c 0.032,0.464 0.192,0.828 0.48,1.092 0.296,0.264 0.652,0.396 1.068,0.396 0.312,0 0.572,-0.068 0.78,-0.204 0.216,-0.144 0.376,-0.328 0.48,-0.552 h 1.56 c -0.112,0.376 -0.3,0.72 -0.564,1.032 -0.256,0.304 -0.576,0.544 -0.96,0.72 -0.376,0.176 -0.804,0.264 -1.284,0.264 z m 0.012,-4.992 c -0.376,0 -0.708,0.108 -0.996,0.324 -0.288,0.208 -0.472,0.528 -0.552,0.96 h 2.964 c -0.024,-0.392 -0.168,-0.704 -0.432,-0.936 -0.264,-0.232 -0.592,-0.348 -0.984,-0.348 z m 4.2679,4.848 v -5.952 h 1.368 l 0.144,1.116 c 0.216,-0.384 0.508,-0.688 0.876,-0.912 0.376,-0.232 0.816,-0.348 1.32,-0.348 v 1.62 h -0.432 c -0.336,0 -0.636,0.052 -0.9,0.156 -0.264,0.104 -0.472,0.284 -0.624,0.54 -0.144,0.256 -0.216,0.612 -0.216,1.068 v 2.712 z" fill="#1d1934" id="path5"></path><defs id="defs5"><clipPath id="clip0_241_1905"><rect width="14" height="14" fill="#ffffff" transform="translate(11.5,5.90479)" id="rect5" x="0" y="0"></rect></clipPath></defs></svg> 