<?xml version="1.0" encoding="UTF-8"?> <svg xmlns="http://www.w3.org/2000/svg" width="16" height="17" viewBox="0 0 16 17" fill="none"><g clip-path="url(#clip0_241_2120)"><path d="M8 16.5C12.4183 16.5 16 12.9183 16 8.5C16 4.08172 12.4183 0.5 8 0.5C3.58172 0.5 0 4.08172 0 8.5C0 12.9183 3.58172 16.5 8 16.5Z" fill="#F0F0F0"></path><path d="M7.30497 8.5C7.30497 8.5 2.34844 14.158 2.34375 14.1568C3.79144 15.6046 5.79147 16.5 8.00062 16.5C12.4189 16.5 16.0006 12.9183 16.0006 8.5H7.30497Z" fill="#D80027"></path><path d="M2.34314 2.84302C-0.781047 5.96721 -0.781047 11.0325 2.34314 14.1568C3.63417 12.8657 4.87583 11.6241 8.00002 8.49989L2.34314 2.84302Z" fill="#0052B4"></path></g><defs><clipPath id="clip0_241_2120"><rect width="16" height="16" fill="white" transform="translate(0 0.5)"></rect></clipPath></defs></svg> 