<?xml version="1.0" encoding="utf-8"?>
<!-- Generator: Adobe Illustrator 26.3.1, SVG Export Plug-In . SVG Version: 6.00 Build 0)  -->
<svg version="1.1" id="Vrstva_1" xmlns="http://www.w3.org/2000/svg" xmlns:xlink="http://www.w3.org/1999/xlink" x="0px" y="0px"
	 viewBox="0 0 40 28" style="enable-background:new 0 0 40 28;" xml:space="preserve">
<style type="text/css">
	.st0{clip-path:url(#SVGID_00000156566527572960518090000015703352388302320546_);}
	.st1{fill:#F28A48;}
</style>
<g>
	<defs>
		<rect id="SVGID_1_" y="0" width="40" height="28"/>
	</defs>
	<clipPath id="SVGID_00000175281414358936267980000004774419904189510033_">
		<use xlink:href="#SVGID_1_"  style="overflow:visible;"/>
	</clipPath>
	<g style="clip-path:url(#SVGID_00000175281414358936267980000004774419904189510033_);">
		<path class="st1" d="M14.9,15.9l-5.9-1c-0.5-0.1-0.9,0.2-1,0.7c-0.1,0.5,0.2,0.9,0.7,1l5.9,1c0.1,0,0.1,0,0.1,0
			c0.4,0,0.8-0.3,0.8-0.7C15.7,16.5,15.4,16,14.9,15.9z"/>
		<path class="st1" d="M30.9,14.9l-5.9,1c-0.5,0.1-0.8,0.5-0.7,1c0.1,0.4,0.4,0.7,0.8,0.7c0.1,0,0.1,0,0.1,0l5.9-1
			c0.5-0.1,0.8-0.5,0.7-1C31.8,15.1,31.4,14.8,30.9,14.9z"/>
		<path class="st1" d="M37.4,8.6h-3.2l-1.5-3.8c-1.2-3-4-4.9-7.1-4.9H14.4c-3.1,0-5.9,1.9-7.1,4.9L5.8,8.6H2.6C1.1,8.6,0,9.8,0,11.2
			v0.4c0,1.4,1.1,2.6,2.6,2.6h1.3v4.3c0,1.2,0.5,2.3,1.3,3.1v3.8c0,1.4,1.1,2.6,2.6,2.6h1.7c1.4,0,2.6-1.2,2.6-2.6v-2.6h16.2v2.6
			c0,1.4,1.1,2.6,2.6,2.6h1.7c1.4,0,2.6-1.2,2.6-2.6v-3.8c0.8-0.8,1.3-1.9,1.3-3.1v-4.3h1.3c1.4,0,2.6-1.2,2.6-2.6v-0.4
			C40,9.8,38.9,8.6,37.4,8.6z M8.9,5.5c0.9-2.3,3.1-3.8,5.5-3.8h11.2c2.5,0,4.6,1.5,5.5,3.8l1.2,3.1H7.6L8.9,5.5z M10.2,25.4
			c0,0.5-0.4,0.9-0.9,0.9H7.7c-0.5,0-0.9-0.4-0.9-0.9v-2.6h3.4V25.4z M33.2,22.8v2.6c0,0.5-0.4,0.9-0.9,0.9h-1.7
			c-0.5,0-0.9-0.4-0.9-0.9v-2.6H33.2z M38.3,11.6c0,0.5-0.4,0.9-0.9,0.9h-3v6c0,1.4-1.1,2.6-2.6,2.6H8.1c-1.4,0-2.6-1.2-2.6-2.6v-6
			h-3c-0.5,0-0.9-0.4-0.9-0.9v-0.4c0-0.5,0.4-0.9,0.9-0.9h34.9c0.5,0,0.9,0.4,0.9,0.9V11.6z"/>
	</g>
</g>
</svg>
