<?xml version="1.0" encoding="UTF-8"?> <svg xmlns="http://www.w3.org/2000/svg" xmlns:v="https://vecta.io/nano" width="88" height="79" fill="none"><path d="M6.888 30.935l-.474 1.115L.84 29.693l.98-2.305c.255-.598.636-1.007 1.144-1.228s1.031-.215 1.572.013.906.599 1.091 1.11.152 1.068-.104 1.671l-.506 1.19 1.872.79zm-4.563-1.928l1.681.71.506-1.19c.109-.255.117-.493.027-.714a.88.88 0 0 0-.501-.487c-.244-.102-.479-.111-.704-.023s-.394.259-.503.514l-.506 1.19zm6.126-5.943l2.719-.083-.753 1.229-2.571.075-.4.65 1.845 1.111-.635 1.036-5.186-3.125 1.335-2.176c.329-.535.751-.872 1.265-1.011a1.86 1.86 0 0 1 1.498.229 1.9 1.9 0 0 1 .794.891c.159.37.189.761.09 1.176zm-2.705-.717l-.7 1.14 1.43.86.7-1.141c.133-.216.174-.431.121-.643a.81.81 0 0 0-.388-.507.83.83 0 0 0-.638-.111c-.217.051-.391.185-.525.401zm9.694-4.402l-.847.985-1.284-.522-1.823 2.118.736 1.158-.803.932-3.325-5.395 1.407-1.633 5.939 2.357zm-6.387-1.282l1.823 2.896 1.368-1.589-3.191-1.307zm6.611-3.304l2.754-2.242a3.43 3.43 0 0 1 .803 1.193c.17.435.239.855.203 1.262a3.08 3.08 0 0 1-.344 1.168 3.04 3.04 0 0 1-.786.96c-.686.56-1.456.803-2.309.727a3.03 3.03 0 0 1-2.123-1.112c-.564-.667-.805-1.417-.723-2.253s.465-1.534 1.152-2.094c.506-.412 1.06-.645 1.661-.697s1.144.037 1.626.273l-.587 1.045a1.95 1.95 0 0 0-1.005-.162c-.355.034-.678.167-.968.403a1.74 1.74 0 0 0-.667 1.276c-.034.516.128.987.487 1.413s.802.669 1.325.731a1.8 1.8 0 0 0 1.4-.409c.348-.283.562-.617.643-1s.038-.731-.128-1.04l-1.71 1.392-.705-.833zm4.536-2.175l-1.854-3.138 1.066-.598 1.854 3.138c.197.334.468.545.811.635s.694.034 1.052-.167.588-.472.678-.807.038-.668-.16-1.002l-1.854-3.138 1.064-.598 1.854 3.138c.363.615.45 1.239.261 1.87s-.612 1.132-1.273 1.504-1.318.479-1.974.323-1.163-.544-1.526-1.159zm10.418-2.372l-3.722 1.434-2.268-5.532L28.35 3.28l.413 1.005-2.579.994.518 1.265L29.2 5.58l.408.994-2.499.964.518 1.265 2.579-.994.411 1.004zm5.637-3.103l-2.234.422-.207-.995 2.234-.422.207.995zm7.009 1.142l-1.234.005-.088-4.86-1.844.006-.019-1.079 4.932-.017.019 1.079-1.854.007.088 4.86zm3.816.171l-1.225-.178.797-5.88 1.225.178-.327 2.411 2.773.402.327-2.411 1.222.177-.797 5.88-1.222-.177.328-2.411-2.772-.402-.328 2.411zm8.95 1.966l-3.865-1.145 1.668-5.689 3.865 1.145-.303 1.032-2.679-.794-.381 1.301 2.596.769-.299 1.023-2.596-.769-.381 1.301 2.679.794-.303 1.032zm7.919.338c.392.279.646.597.763.955a1.27 1.27 0 0 1-.108 1.049 1.41 1.41 0 0 1-.979.722c-.439.096-.896.014-1.372-.243l-2.546-1.385 2.865-5.194 2.317 1.26c.477.259.791.601.943 1.024s.122.828-.09 1.213c-.173.312-.417.521-.733.626s-.668.097-1.061-.026zm.334-1.981l-1.156-.63-.688 1.248 1.156.63c.213.115.416.147.61.098a.68.68 0 0 0 .444-.347.65.65 0 0 0 .053-.55c-.065-.184-.205-.333-.418-.449zm-3.016 2.739l1.299.707c.213.116.416.15.606.103a.67.67 0 0 0 .439-.345.65.65 0 0 0 .057-.552c-.064-.185-.201-.336-.414-.452l-1.298-.707-.689 1.247zm4.491 3.922l-1.021-.701 3.421-4.864 1.021.701-3.421 4.864zm3.074 2.397l-.945-.797 3.196-3.674-1.412-1.193.71-.815 3.775 3.191-.709.815-1.419-1.2-3.196 3.674zm3.02 1.678c.052-.838.41-1.534 1.072-2.088s1.418-.792 2.269-.711 1.572.457 2.16 1.132c.434.498.686 1.043.757 1.635s-.007 1.124-.234 1.599l-1.077-.577a1.82 1.82 0 0 0 .138-.988c-.045-.349-.191-.665-.439-.95a1.84 1.84 0 0 0-1.316-.657c-.526-.034-1 .125-1.422.48s-.658.788-.706 1.303.106.974.457 1.378a1.82 1.82 0 0 0 .889.575 1.91 1.91 0 0 0 1.014.02l.412 1.136c-.512.146-1.061.137-1.645-.024s-1.092-.491-1.525-.989c-.589-.675-.856-1.433-.804-2.271zm4.277 5.239c.201-.814.678-1.436 1.431-1.865a3 3 0 0 1 2.368-.307c.826.226 1.469.721 1.927 1.486s.588 1.554.387 2.369a2.87 2.87 0 0 1-1.432 1.866 3 3 0 0 1-2.367.306c-.826-.226-1.47-.722-1.929-1.487s-.586-1.554-.385-2.368zm3.574-1c-.511-.124-1.008-.049-1.488.226s-.789.66-.93 1.157-.072.973.203 1.43.67.753 1.181.877a1.97 1.97 0 0 0 1.488-.226c.48-.275.79-.659.931-1.155s.074-.975-.202-1.436-.67-.747-1.183-.872zm-.716 8.082l-.498-1.126 5.557-2.329.498 1.126-5.557 2.329zm1.986 4.887l5.522-1.589.362 1.167-5.78 1.662-.704-2.268 5.005-3.26-5.522 1.589-.362-1.167 5.78-1.662.702 2.259-5.002 3.269zm1.595 5.787c.567-.622 1.286-.95 2.159-.983s1.626.241 2.256.819.967 1.308 1.014 2.19c.034.651-.106 1.229-.419 1.733s-.708.873-1.185 1.106l-.499-1.103a1.84 1.84 0 0 0 .727-.688 1.72 1.72 0 0 0 .246-1.007 1.79 1.79 0 0 0-.638-1.307c-.398-.345-.875-.508-1.433-.487s-1.017.218-1.377.592a1.73 1.73 0 0 0-.499 1.349 1.75 1.75 0 0 0 .349.985c.214.284.48.495.797.631l-.381 1.135c-.501-.197-.934-.535-1.299-1.014s-.564-1.045-.598-1.695c-.047-.882.213-1.634.779-2.257zm-1.337 11.589l.156-1.287 1.355-.251.335-2.772-1.254-.583.147-1.221 5.764 2.773-.259 2.137-6.243 1.204zm6.015-2.356l-3.123-1.468-.251 2.081 3.375-.613zm-6.589 4.131l.333-1.164 5.814 1.681-.687 2.407c-.179.625-.506 1.078-.983 1.357s-.996.336-1.561.173-.971-.487-1.218-.974-.282-1.043-.101-1.673l.354-1.244-1.951-.564zm4.759 1.376l-1.752-.506-.355 1.244a.91.91 0 0 0 .06.714c.117.21.302.352.556.425a.9.9 0 0 0 .701-.062c.212-.115.359-.305.434-.571l.355-1.244zm-6.576 3.841l.455-1.123 5.618 2.265-.455 1.123-5.618-2.265zm-1.709 3.452l.568-1.072 4.389 2.299.849-1.6.974.509-2.27 4.28-.974-.509.853-1.608-4.389-2.299zm-4.709 6.833l.778-1.038 1.314.436 1.674-2.234-.813-1.108.737-.985 3.683 5.17-1.291 1.725-6.082-1.966zm6.454.863l-2.012-2.774-1.256 1.678 3.268 1.096zm-9.826 2.381l2.817-2.784 4.31 4.224-.865.855-3.528-3.457-1.952 1.929-.782-.767zm7.851-20.299C72.241 71.18 53.31 82.312 34.616 77.751 15.93 73.19 4.555 54.662 9.217 36.371S32.806 6.943 51.494 11.503 81.561 34.594 76.9 52.887z" fill="#f18a48"></path><path d="M58.441 39.763c.695-4.544-2.84-6.986-7.674-8.616l1.568-6.155-3.828-.934-1.527 5.993-3.067-.706 1.537-6.032-3.826-.934-1.569 6.152-2.445-.562.005-.019-5.279-1.29-1.018 4.001s2.84.637 2.78.677c1.55.379 1.831 1.383 1.784 2.179l-1.786 7.012c.107.027.245.065.398.125l-.405-.098-2.503 9.822c-.19.461-.67 1.153-1.755.89.039.054-2.782-.68-2.782-.68l-1.901 4.289 4.982 1.215 2.729.689-1.584 6.225 3.824.934 1.569-6.159 3.05.774-1.563 6.13 3.828.934 1.584-6.213c6.527 1.209 11.436.722 13.502-5.057 1.665-4.653-.083-7.336-3.517-9.086 2.501-.564 4.386-2.174 4.888-5.5zm-8.746 12.003c-1.183 4.653-9.187 2.138-11.782 1.507l2.102-8.247c2.595.634 10.916 1.889 9.68 6.74zm1.184-12.07c-1.079 4.232-7.741 2.082-9.902 1.554l1.906-7.48c2.161.527 9.121 1.511 7.996 5.925z" fill="#fefbf6"></path></svg> 