<?xml version="1.0" encoding="UTF-8"?> <svg xmlns="http://www.w3.org/2000/svg" width="16" height="17" viewBox="0 0 16 17" fill="none"><g clip-path="url(#clip0_241_2123)"><path d="M8 16.5C12.4183 16.5 16 12.9183 16 8.5C16 4.08172 12.4183 0.5 8 0.5C3.58172 0.5 0 4.08172 0 8.5C0 12.9183 3.58172 16.5 8 16.5Z" fill="#F0F0F0"></path><path d="M1.6555 3.62939C1.02709 4.44699 0.55325 5.38933 0.277344 6.41305H4.43916L1.6555 3.62939Z" fill="#0052B4"></path><path d="M15.7242 6.41302C15.4483 5.38933 14.9745 4.44699 14.3461 3.62939L11.5625 6.41302H15.7242Z" fill="#0052B4"></path><path d="M0.277344 10.5872C0.553281 11.6108 1.02712 12.5532 1.6555 13.3708L4.43906 10.5872H0.277344Z" fill="#0052B4"></path><path d="M12.8735 2.15382C12.0559 1.52542 11.1136 1.05157 10.0898 0.775635V4.93742L12.8735 2.15382Z" fill="#0052B4"></path><path d="M3.13281 14.8463C3.95041 15.4747 4.89275 15.9486 5.91644 16.2245V12.0627L3.13281 14.8463Z" fill="#0052B4"></path><path d="M5.91641 0.775635C4.89272 1.05157 3.95038 1.52542 3.13281 2.15379L5.91641 4.93738V0.775635Z" fill="#0052B4"></path><path d="M10.0898 16.2245C11.1135 15.9486 12.0559 15.4747 12.8734 14.8463L10.0898 12.0627V16.2245Z" fill="#0052B4"></path><path d="M11.5625 10.5872L14.3461 13.3708C14.9745 12.5532 15.4483 11.6108 15.7242 10.5872H11.5625Z" fill="#0052B4"></path><path d="M15.9323 7.45653H9.04353H9.0435V0.567719C8.70191 0.52325 8.35366 0.5 8 0.5C7.64628 0.5 7.29809 0.52325 6.95653 0.567719V7.45647V7.4565H0.0677188C0.02325 7.79809 0 8.14634 0 8.5C0 8.85372 0.02325 9.20191 0.0677188 9.54347H6.95647H6.9565V16.4323C7.29809 16.4768 7.64628 16.5 8 16.5C8.35366 16.5 8.70191 16.4768 9.04347 16.4323V9.54353V9.5435H15.9323C15.9768 9.20191 16 8.85372 16 8.5C16 8.14634 15.9768 7.79809 15.9323 7.45653Z" fill="#D80027"></path><path d="M10.0859 10.5869L13.6558 14.1568C13.82 13.9927 13.9766 13.8211 14.1261 13.6432L11.0698 10.5869H10.0859V10.5869Z" fill="#D80027"></path><path d="M5.91366 10.5869H5.91359L2.34375 14.1568C2.50787 14.3209 2.67947 14.4776 2.85734 14.627L5.91366 11.5706V10.5869Z" fill="#D80027"></path><path d="M5.91122 6.41299V6.41292L2.34134 2.84302C2.17716 3.00714 2.02053 3.17874 1.87109 3.35661L4.92744 6.41296H5.91122V6.41299Z" fill="#D80027"></path><path d="M10.0859 6.4132L13.6558 2.84327C13.4917 2.67908 13.3201 2.52245 13.1423 2.37305L10.0859 5.42939V6.4132Z" fill="#D80027"></path></g><defs><clipPath id="clip0_241_2123"><rect width="16" height="16" fill="white" transform="translate(0 0.5)"></rect></clipPath></defs></svg> 