<?xml version="1.0" encoding="UTF-8" standalone="no"?>
<svg
   width="18"
   height="19"
   viewBox="0 0 18 19"
   fill="none"
   version="1.1"
   id="svg1"
   sodipodi:docname="check-plus.svg"
   inkscape:version="1.3.2 (091e20ef0f, 2023-11-25)"
   xmlns:inkscape="http://www.inkscape.org/namespaces/inkscape"
   xmlns:sodipodi="http://sodipodi.sourceforge.net/DTD/sodipodi-0.dtd"
   xmlns="http://www.w3.org/2000/svg"
   xmlns:svg="http://www.w3.org/2000/svg">
  <defs
     id="defs1" />
  <sodipodi:namedview
     id="namedview1"
     pagecolor="#ffffff"
     bordercolor="#000000"
     borderopacity="0.25"
     inkscape:showpageshadow="2"
     inkscape:pageopacity="0.0"
     inkscape:pagecheckerboard="0"
     inkscape:deskcolor="#d1d1d1"
     inkscape:zoom="30.554456"
     inkscape:cx="9.0003238"
     inkscape:cy="9.5076148"
     inkscape:window-width="1860"
     inkscape:window-height="1018"
     inkscape:window-x="60"
     inkscape:window-y="30"
     inkscape:window-maximized="1"
     inkscape:current-layer="svg1" />
  <g
     transform="matrix(0.80145593,0,0,0.80145593,9,9.5)"
     id="g2"
     style="fill:#1d1934;fill-opacity:1">
<path
   style="opacity:1;fill:#1d1934;fill-opacity:1;fill-rule:evenodd;stroke:none;stroke-width:1;stroke-linecap:butt;stroke-linejoin:miter;stroke-miterlimit:4;stroke-dasharray:none;stroke-dashoffset:0"
   transform="translate(-12,-12)"
   d="m 12,2.25 c -5.385,0 -9.75,4.365 -9.75,9.75 0,5.385 4.365,9.75 9.75,9.75 5.385,0 9.75,-4.365 9.75,-9.75 C 21.75,6.615 17.385,2.25 12,2.25 Z M 12.75,9 C 12.75,8.5857864 12.414214,8.25 12,8.25 11.585786,8.25 11.25,8.5857864 11.25,9 v 2.25 H 9 c -0.4142136,0 -0.75,0.335786 -0.75,0.75 0,0.414214 0.3357864,0.75 0.75,0.75 h 2.25 V 15 c 0,0.414214 0.335786,0.75 0.75,0.75 0.414214,0 0.75,-0.335786 0.75,-0.75 V 12.75 H 15 c 0.414214,0 0.75,-0.335786 0.75,-0.75 0,-0.414214 -0.335786,-0.75 -0.75,-0.75 h -2.25 z"
   stroke-linecap="round"
   id="path1-2" />

</g>
</svg>
